<svg width="160" height="28" viewBox="0 0 160 28" fill="none" xmlns="http://www.w3.org/2000/svg">
<path d="M26.7396 9.33134H22.9155C22.6893 8.42636 22.2935 7.63134 21.7281 6.94626C21.173 6.26119 20.4945 5.68606 19.6927 5.22089C18.9011 4.74726 18.0222 4.39203 17.0558 4.15522C16.0895 3.9184 15.0821 3.79999 14.0335 3.79999C12.1214 3.79999 10.3892 4.19751 8.83693 4.99253C7.29492 5.78756 6.06646 6.95895 5.15154 8.50671C4.24689 10.0545 3.79457 11.9532 3.79457 14.203C3.79457 16.4527 4.24689 18.3515 5.15154 19.8992C6.06646 21.447 7.29492 22.6184 8.83693 23.4134C10.3892 24.2085 12.1214 24.606 14.0335 24.606C15.0821 24.606 16.0895 24.4876 17.0558 24.2507C18.0222 24.0139 18.9011 23.6629 19.6927 23.1978C20.4945 22.7241 21.173 22.1448 21.7281 21.4597C22.2935 20.7662 22.6893 19.9711 22.9155 19.0746H26.7396C26.4518 20.4025 25.9275 21.5908 25.1668 22.6395C24.4061 23.6883 23.4603 24.5806 22.3295 25.3164C21.1987 26.0438 19.9291 26.5978 18.5207 26.9784C17.1227 27.3589 15.6269 27.5492 14.0335 27.5492C11.3401 27.5492 8.94487 27.008 6.84774 25.9254C4.75061 24.8428 3.10066 23.3035 1.8979 21.3075C0.695133 19.3114 0.09375 16.9433 0.09375 14.203C0.09375 11.4627 0.695133 9.09452 1.8979 7.0985C3.10066 5.10248 4.75061 3.56318 6.84774 2.48059C8.94487 1.398 11.3401 0.856709 14.0335 0.856709C15.6269 0.856709 17.1227 1.04701 18.5207 1.42761C19.9291 1.8082 21.1987 2.36641 22.3295 3.10223C23.4603 3.82959 24.4061 4.71765 25.1668 5.76641C25.9275 6.80671 26.4518 7.99502 26.7396 9.33134Z" fill="#FCFCFE"/>
<path d="M31.7226 15.4716V27.194H28.0835V1.21193H31.7226V10.7522H32.031C32.5862 9.74576 33.4188 8.94651 34.5291 8.35447C35.6496 7.75397 37.1402 7.45373 39.0009 7.45373C40.6149 7.45373 42.0284 7.72014 43.2414 8.25298C44.4545 8.77736 45.3951 9.58507 46.0633 10.6761C46.7418 11.7587 47.081 13.1373 47.081 14.8119V27.194H43.4419V15.0149C43.4419 13.4672 42.9536 12.2704 41.977 11.4246C41.0107 10.5704 39.6691 10.1433 37.9523 10.1433C36.7599 10.1433 35.6907 10.3505 34.745 10.7649C33.8095 11.1793 33.0693 11.7841 32.5245 12.5791C31.9899 13.3741 31.7226 14.3383 31.7226 15.4716Z" fill="#FCFCFE"/>
<path d="M49.3964 27.194V7.70746H52.9121V10.6507H53.1589C53.5906 9.68656 54.3719 8.90422 55.5027 8.30372C56.6335 7.70323 57.9082 7.40298 59.3269 7.40298C59.5942 7.40298 59.9283 7.40721 60.3292 7.41566C60.7301 7.42412 61.0334 7.43681 61.239 7.45373V10.4985C61.1156 10.4731 60.8329 10.4351 60.3909 10.3843C59.9591 10.3251 59.5016 10.2955 59.0185 10.2955C57.8671 10.2955 56.8391 10.4943 55.9345 10.8918C55.0401 11.2808 54.3308 11.8221 53.8065 12.5157C53.2925 13.2007 53.0355 13.9831 53.0355 14.8627V27.194H49.3964Z" fill="#FCFCFE"/>
<path d="M61.9329 27.6V8.11343H65.572V27.6H61.9329ZM63.7833 4.86567C63.074 4.86567 62.4623 4.66691 61.9483 4.26939C61.4446 3.87188 61.1927 3.39402 61.1927 2.83581C61.1927 2.2776 61.4446 1.79974 61.9483 1.40223C62.4623 1.00472 63.074 0.805963 63.7833 0.805963C64.4926 0.805963 65.0991 1.00472 65.6029 1.40223C66.1169 1.79974 66.3739 2.2776 66.3739 2.83581C66.3739 3.39402 66.1169 3.87188 65.6029 4.26939C65.0991 4.66691 64.4926 4.86567 63.7833 4.86567Z" fill="#FCFCFE"/>
<path d="M83.9497 12.0716L80.6806 12.8328C80.475 12.3846 80.1717 11.949 79.7708 11.5261C79.3802 11.0948 78.8456 10.7395 78.1671 10.4604C77.4886 10.1813 76.62 10.0418 75.5611 10.0418C74.1117 10.0418 72.9037 10.3167 71.9374 10.8664C70.9814 11.4077 70.5034 12.097 70.5034 12.9343C70.5034 13.6786 70.8323 14.2664 71.4902 14.6978C72.1482 15.1291 73.1762 15.4886 74.5742 15.7761L78.09 16.4866C80.2077 16.9094 81.7857 17.5565 82.824 18.4276C83.8623 19.2903 84.3814 20.4025 84.3814 21.7642C84.3814 22.8806 83.9908 23.8786 83.2095 24.7582C82.4385 25.6378 81.3591 26.3313 79.9713 26.8388C78.5835 27.3463 76.9695 27.6 75.1294 27.6C72.7136 27.6 70.7141 27.1687 69.131 26.306C67.5478 25.4433 66.5455 24.1831 66.1241 22.5254L69.5782 21.8149C69.9071 22.8637 70.529 23.6502 71.444 24.1746C72.3692 24.699 73.5771 24.9612 75.0677 24.9612C76.7639 24.9612 78.1106 24.6652 79.1078 24.0731C80.1152 23.4726 80.6189 22.7537 80.6189 21.9164C80.6189 21.2398 80.3311 20.6731 79.7554 20.2164C79.1797 19.7512 78.2956 19.4045 77.1031 19.1761L73.1556 18.4149C70.9865 17.992 69.3931 17.3366 68.3754 16.4485C67.3679 15.552 66.8642 14.4313 66.8642 13.0866C66.8642 11.9871 67.2394 11.0144 67.9899 10.1687C68.7506 9.32288 69.7838 8.65895 71.0893 8.17686C72.4052 7.69477 73.8958 7.45373 75.5611 7.45373C77.905 7.45373 79.7451 7.87661 81.0815 8.72238C82.4282 9.56815 83.3843 10.6846 83.9497 12.0716Z" fill="#FCFCFE"/>
<path d="M95.8177 7.70746V10.2448H83.5433V7.70746H95.8177ZM87.1208 3.0388H90.7599V21.6119C90.7599 22.4577 90.909 23.092 91.2071 23.5149C91.5155 23.9293 91.9062 24.2085 92.379 24.3522C92.8622 24.4876 93.3711 24.5552 93.9056 24.5552C94.3065 24.5552 94.6355 24.5383 94.8925 24.5045C95.1495 24.4622 95.3551 24.4284 95.5093 24.403L96.2495 27.0925C96.0028 27.1687 95.6584 27.2448 95.2163 27.3209C94.7743 27.4055 94.214 27.4478 93.5355 27.4478C92.5075 27.4478 91.5001 27.2659 90.5132 26.9022C89.5366 26.5386 88.7245 25.9846 88.0768 25.2403C87.4395 24.496 87.1208 23.5572 87.1208 22.4239V3.0388Z" fill="#FCFCFE"/>
<path d="M103.179 27.194L94.544 1.21193H98.4299L105.03 22.3731H105.338L112.061 1.21193H116.379L123.102 22.3731H123.41L130.01 1.21193H133.896L125.261 27.194H121.313L114.343 6.48954H114.097L107.127 27.194H103.179Z" fill="#0A65B8"/>
<path d="M138.167 27.194V7.70746H141.807V27.194H138.167ZM140.018 4.4597C139.308 4.4597 138.697 4.26094 138.183 3.86343C137.679 3.46591 137.427 2.98805 137.427 2.42984C137.427 1.87164 137.679 1.39377 138.183 0.996262C138.697 0.59875 139.308 0.399994 140.018 0.399994C140.727 0.399994 141.334 0.59875 141.837 0.996262C142.351 1.39377 142.608 1.87164 142.608 2.42984C142.608 2.98805 142.351 3.46591 141.837 3.86343C141.334 4.26094 140.727 4.4597 140.018 4.4597Z" fill="#0A65B8"/>
<path d="M158.772 7.70746V10.2448H146.498V7.70746H158.772ZM150.076 3.0388H153.715V21.6119C153.715 22.4577 153.864 23.092 154.162 23.5149C154.47 23.9293 154.861 24.2085 155.334 24.3522C155.817 24.4876 156.326 24.5552 156.86 24.5552C157.261 24.5552 157.59 24.5383 157.847 24.5045C158.104 24.4622 158.31 24.4284 158.464 24.403L159.204 27.0925C158.958 27.1687 158.613 27.2448 158.171 27.3209C157.729 27.4055 157.169 27.4478 156.49 27.4478C155.462 27.4478 154.455 27.2659 153.468 26.9022C152.491 26.5386 151.679 25.9846 151.032 25.2403C150.394 24.496 150.076 23.5572 150.076 22.4239V3.0388Z" fill="#0A65B8"/>
</svg>
